<svg width="32" height="29" viewBox="0 0 32 29" fill="none" xmlns="http://www.w3.org/2000/svg">
<g id="sofa 1">
<g id="Retro Sofa">
<path id="Vector" d="M7.5 22.4651H4.5V24.6744H7.5V22.4651Z" fill="#7C7D98"/>
<path id="Vector_2" d="M27.5 22.4651H24.5V24.6744H27.5V22.4651Z" fill="#7C7D98"/>
<path id="Vector_3" d="M27.5 24.6743C27.5 24.6743 27.0391 24.2325 26 24.2325C24.9609 24.2325 24.5 24.6743 24.5 24.6743V23.3488H27.5V24.6743Z" fill="#2E305E"/>
<path id="Vector_4" d="M7.5 24.6743C7.5 24.6743 7.03911 24.2325 6 24.2325C4.96089 24.2325 4.5 24.6743 4.5 24.6743V23.3488H7.5V24.6743Z" fill="#2E305E"/>
<path id="Vector_5" d="M21.5 4.34875H10.5C8.9087 4.34875 7.38258 4.90739 6.25736 5.90177C5.13214 6.89615 4.5 8.24482 4.5 9.65108V18.4883H27.5V9.65108C27.5 8.24482 26.8679 6.89615 25.7426 5.90177C24.6174 4.90739 23.0913 4.34875 21.5 4.34875Z" fill="#F88F19"/>
<path id="Vector_6" d="M19.5 5.23242H12.5C11.1739 5.23242 9.90215 5.69795 8.96447 6.5266C8.02678 7.35525 7.5 8.47914 7.5 9.65103V18.9301H24.5V9.65103C24.5 8.47914 23.9732 7.35525 23.0355 6.5266C22.0979 5.69795 20.8261 5.23242 19.5 5.23242Z" fill="#F06000"/>
<path id="Vector_7" d="M4.50513 10.0929H6.00512C7.06599 10.0929 8.08341 10.4653 8.83355 11.1282C9.5837 11.7912 10.0051 12.6903 10.0051 13.6278V18.4882H21.995V13.6278C21.995 12.6903 22.4164 11.7912 23.1666 11.1282C23.9167 10.4653 24.9341 10.0929 25.995 10.0929H27.495C28.3753 10.0925 29.2312 10.3488 29.9298 10.8222C30.6284 11.2956 31.1307 11.9595 31.3587 12.711C31.5866 13.4624 31.5275 14.2594 31.1905 14.9781C30.8535 15.6968 30.2575 16.2971 29.495 16.6859V21.5813C29.495 22.05 29.2843 22.4996 28.9092 22.831C28.5341 23.1625 28.0254 23.3487 27.495 23.3487H4.50513C3.97469 23.3487 3.46598 23.1625 3.09091 22.831C2.71584 22.4996 2.50513 22.05 2.50513 21.5813V16.6859C1.74258 16.2971 1.14657 15.6968 0.809593 14.9781C0.472616 14.2594 0.413515 13.4624 0.641468 12.711C0.869419 11.9595 1.37167 11.2956 2.07028 10.8222C2.76889 10.3488 3.62478 10.0925 4.50513 10.0929Z" fill="#F06000"/>
<path id="Vector_8" d="M12 4.79065H19.5C21.5 4.79065 23 6.55809 23 8.32553C23 10.093 21.5 11.8604 19.5 11.8604H12C12 11.8604 13.5 10.5348 13.5 8.32553C13.5 6.11623 12 4.79065 12 4.79065Z" fill="#F88F19"/>
<path id="Vector_9" d="M12 8.76733C12 8.76733 13 9.65105 16 9.65105C19 9.65105 20 8.76733 20 8.76733H12Z" fill="#FCAA40"/>
<path id="Vector_10" d="M21.5 14.9534H10.5C9.96957 14.9534 9.46086 15.1396 9.08579 15.471C8.71071 15.8025 8.5 16.2521 8.5 16.7208V18.0464H23.5V16.7208C23.5 16.2521 23.2893 15.8025 22.9142 15.471C22.5391 15.1396 22.0304 14.9534 21.5 14.9534Z" fill="#F88F19"/>
<path id="Vector_11" d="M21 14.9534C21 14.9534 20 16.279 16 16.279C12 16.279 11 14.9534 11 14.9534H21Z" fill="#FFC263"/>
<path id="Vector_12" d="M23 23.3487V18.0464C23 18.0464 22 18.9301 22 20.6975C22 22.465 23 23.3487 23 23.3487Z" fill="#F4791A"/>
<path id="Vector_13" d="M8.5 18.0464V23.3487C8.5 23.3487 7.5 22.465 7.5 20.6975C7.5 18.9301 8.5 18.0464 8.5 18.0464Z" fill="#F4791A"/>
<g id="Group">
<path id="Vector_14" d="M23.5 13.6278L23.5 14.0696H22V13.6278C22.0328 11.7005 23.8063 10.0929 25.9949 10.0929H27.4949L27.496 10.093C27.4105 10.0935 23.5 10.0929 23.5 13.6278Z" fill="#FCAA40"/>
<path id="Vector_15" d="M8.49586 13.6278L8.49988 14.0696H9.99988L9.99588 13.6278C9.96304 11.7005 8.18957 10.0929 6.00094 10.0929H4.50094L4.49987 10.093C4.58536 10.0935 8.49586 10.0929 8.49586 13.6278Z" fill="#FCAA40"/>
</g>
</g>
</g>
</svg>
