<svg width="32" height="29" viewBox="0 0 32 29" fill="none" xmlns="http://www.w3.org/2000/svg">
<g id="cosmetics (1) 1" clip-path="url(#clip0_1_2178)">
<g id="Group">
<path id="Vector" d="M15.0537 27.4658H4.88562L4.96812 28.1071L4.96831 28.1074V31.598C4.96831 32.0255 5.31487 32.3721 5.74237 32.3721H14.1972C14.6247 32.3721 14.9712 32.0255 14.9712 31.598V28.1074L15.0537 27.4658Z" fill="#FE4FB7"/>
<g id="Group_2">
<path id="Vector_2" d="M14.971 28.1072V31.6182C14.971 32.0347 14.6337 32.372 14.2174 32.372H12.5084C12.9249 32.372 13.2622 32.0347 13.2622 31.6182V28.1072H14.971Z" fill="#FE2AA8"/>
<path id="Vector_3" d="M9.96979 0.37207H3.25235C2.97004 0.37207 2.74735 0.622445 2.76848 0.916008L4.96835 28.1074H9.96979H14.9712L17.1711 0.916008C17.1922 0.622445 16.9695 0.37207 16.6872 0.37207L9.96979 0.37207Z" fill="#FEAEE1"/>
<path id="Vector_4" d="M17.1714 0.915758L14.9711 28.1072H13.2622L15.4625 0.915758C15.4831 0.62232 15.2609 0.37207 14.9785 0.37207H16.6874C16.9693 0.37207 17.1921 0.62232 17.1714 0.915758Z" fill="#FE93D3"/>
<path id="Vector_5" d="M10.193 11.5435C10.0723 11.4245 9.86722 11.4245 9.74647 11.5435C8.99378 12.2853 6.62859 14.8543 7.21366 17.3231C7.40378 18.1253 7.96859 18.849 8.83341 19.2877L8.84291 19.2925C9.54497 19.6475 10.3945 19.6475 11.0965 19.2925L11.106 19.2877C11.9709 18.849 12.5357 18.1253 12.7258 17.3231C13.3109 14.8543 10.9457 12.2853 10.193 11.5435Z" fill="#EFEDEF"/>
<path id="Vector_6" d="M12.7257 17.3231C12.5357 18.1255 11.9707 18.8488 11.1062 19.2878L11.0965 19.2927C10.5601 19.5636 9.9379 19.6281 9.36072 19.4845C9.53909 19.44 9.71322 19.3761 9.87884 19.2927L9.88859 19.2878C10.7531 18.8488 11.3181 18.1255 11.508 17.3231C12.0133 15.1904 10.3172 12.9822 9.36134 11.943C9.51172 11.7792 9.64447 11.6446 9.74672 11.5436C9.86728 11.4243 10.0725 11.4243 10.193 11.5436C10.9455 12.2851 13.3108 14.8543 12.7257 17.3231Z" fill="#E5E1E5"/>
<path id="Vector_7" d="M17.1714 0.89357L17.0167 2.95626H2.92378L2.76909 0.89357C2.74796 0.61207 2.97065 0.37207 3.2529 0.37207H16.6875C16.9698 0.37207 17.1925 0.61207 17.1714 0.89357Z" fill="#FE4FB7"/>
<path id="Vector_8" d="M17.1721 0.850008V0.856695C17.1721 0.868883 17.1721 0.88107 17.1708 0.89382L17.0162 2.95651H15.3158L15.4625 0.915758C15.4832 0.62232 15.261 0.37207 14.9785 0.37207H16.6875C16.7045 0.37207 16.721 0.372695 16.7374 0.374508C16.9742 0.40007 17.1587 0.60282 17.1721 0.850008Z" fill="#FE2AA8"/>
<g id="Group_3">
<path id="Vector_9" d="M28.3196 24.923H14.885V21.8499L14.9454 21.5439L28.2618 21.5322L28.3196 21.8499V24.923Z" fill="#7CA1B1"/>
<path id="Vector_10" d="M26.7585 21.8499H28.3198V24.3583H26.7585V21.8499Z" fill="#678D98"/>
<path id="Vector_11" d="M27.8149 32.372H15.3897C14.6066 32.372 13.9717 31.7372 13.9717 30.954V24.7921C13.9717 24.5525 14.1659 24.3583 14.4055 24.3583H28.7992C29.0388 24.3583 29.233 24.5525 29.233 24.7921V30.954C29.2329 31.7372 28.5981 32.372 27.8149 32.372Z" fill="#FDB441"/>
<path id="Vector_12" d="M27.5391 24.358H28.7857C29.0326 24.358 29.2331 24.5585 29.2331 24.8061V30.9091C29.2331 31.7169 28.5781 32.372 27.7703 32.372H26.0643C26.8722 32.372 27.5272 31.7169 27.5272 30.9091V24.8061L27.5391 24.358Z" fill="#FEA613"/>
<path id="Vector_13" d="M14.885 21.8498C14.8811 21.6734 14.8784 21.4969 14.8765 21.3204C14.8707 20.7597 15.0113 20.2692 15.4023 19.8519C15.8443 19.3801 16.6651 19.012 17.2907 18.8719C18.2679 18.6529 19.2702 18.5821 20.2584 18.4303C20.9977 18.3167 21.7377 18.1548 22.4295 17.8641C23.0143 17.6183 23.5563 17.2769 24.1196 16.9764C24.2928 16.8841 24.5106 16.9632 24.5757 17.1484C24.6056 17.2334 24.6395 17.3169 24.6795 17.3976C24.8195 17.6794 24.9567 17.9679 25.1608 18.2101C25.2703 18.3401 25.3924 18.4591 25.5196 18.5718C26.056 19.0473 26.6636 19.4327 27.2567 19.8356C27.3438 19.8948 27.4306 19.9544 27.5168 20.0149C27.9846 20.3437 28.289 20.7954 28.3117 21.3786C28.313 21.411 28.3292 21.8499 28.3197 21.8499C28.319 21.8498 14.8921 21.8498 14.885 21.8498Z" fill="#FEE8C7"/>
<path id="Vector_14" d="M28.3193 21.85C28.3193 21.85 27.7127 21.85 26.7572 21.85C26.7546 21.7217 26.7488 21.563 26.7475 21.5437C26.7172 20.7714 26.1305 20.3994 25.5128 20.0718C24.7321 19.6566 24.1686 19.0544 23.5967 18.3749C23.3865 18.1262 23.2472 17.8276 23.103 17.5382C23.4436 17.3564 23.7777 17.159 24.1196 16.9764C24.293 16.8842 24.5103 16.9629 24.5754 17.1485C24.6057 17.233 24.6392 17.3168 24.6792 17.3974C24.8191 17.6792 24.9565 17.968 25.1608 18.2098C25.2705 18.34 25.3923 18.4587 25.5193 18.5715C26.0558 19.0473 26.6637 19.4329 27.2569 19.8358C27.344 19.8945 27.4303 19.9544 27.5167 20.015C27.9848 20.3439 28.2891 20.7952 28.3117 21.3787C28.3129 21.4109 28.329 21.85 28.3193 21.85Z" fill="#FEDBA6"/>
<path id="Vector_15" d="M25.8595 30.0577H17.3449C17.0707 30.0577 16.8484 29.8354 16.8484 29.5612V27.169C16.8484 26.8948 17.0707 26.6725 17.3449 26.6725H25.8596C26.1338 26.6725 26.3561 26.8948 26.3561 27.169V29.5612C26.356 29.8354 26.1338 30.0577 25.8595 30.0577Z" fill="#EFEDEF"/>
<path id="Vector_16" d="M26.3563 27.1844V29.5454C26.3563 29.8285 26.1268 30.058 25.8437 30.058H24.5117C24.7941 30.058 25.0237 29.8285 25.0237 29.5454V27.1844C25.0237 26.902 24.7942 26.6725 24.5117 26.6725H25.8437C26.1268 26.6725 26.3563 26.902 26.3563 27.1844Z" fill="#E5E1E5"/>
</g>
</g>
</g>
</g>
<defs>
<clipPath id="clip0_1_2178">
<rect width="32" height="32" fill="white" transform="translate(0 0.37207)"/>
</clipPath>
</defs>
</svg>
