<svg width="25" height="29" viewBox="0 0 25 29" fill="none" xmlns="http://www.w3.org/2000/svg">
<g id="food (1) 1" clip-path="url(#clip0_1_2202)">
<g id="Group">
<path id="Vector" d="M6.54785 10.6445C6.3523 10.6445 6.16083 10.5573 6.0505 10.3989C5.69209 9.88563 5.02254 9.29187 4.25376 9.31354C3.92686 9.29806 3.66184 9.09791 3.6525 8.81367C3.64258 8.5284 3.89592 8.29058 4.21815 8.28182C5.44809 8.24932 6.49707 9.07315 7.04403 9.85777C7.21331 10.1002 7.12809 10.418 6.85373 10.5676C6.75858 10.6197 6.65234 10.6445 6.54785 10.6445Z" fill="#436B1C"/>
<g id="Group_2">
<path id="Vector_2" d="M18.4952 3.77529C18.417 2.77039 17.4719 1.97596 16.315 1.97596C16.3115 1.97596 16.3085 1.97648 16.305 1.97648C16.3255 1.8243 16.3138 1.66335 16.2583 1.49569C16.1019 1.0242 15.6326 0.66206 15.0803 0.603768C14.6274 0.556309 14.2117 0.699718 13.9205 0.954039C13.6432 0.732734 13.2801 0.594482 12.8773 0.594482C12.014 0.594482 11.3146 1.213 11.3146 1.97545C11.3146 1.97803 11.3152 1.98009 11.3152 1.98267C10.2663 2.05283 9.43909 2.8261 9.43909 3.77116C9.43909 3.91561 9.46069 4.0554 9.49688 4.19004C8.24827 4.23596 7.25124 5.14284 7.25124 6.25762C7.25124 6.63523 7.3674 6.98808 7.56704 7.29296C7.18353 7.57152 6.93835 7.99401 6.93835 8.46706C6.93835 8.89935 7.14558 9.28677 7.47364 9.56275C8.88162 8.54599 10.3608 11.9466 12.1027 14.6615C12.6812 15.5633 18.9313 14.6027 19.4292 15.163C19.9966 14.7121 20.3632 6.86066 20.379 6.17096C20.4035 5.06443 19.6084 4.1204 18.4952 3.77529Z" fill="#88C057"/>
</g>
<path id="Vector_3" d="M19.2944 14.0595L19.7107 13.8392C20.4812 13.4306 21.4432 13.4306 22.2131 13.8392L22.6293 14.0595C23.3999 14.468 24.3619 14.468 25.1318 14.0595L26.3081 13.5972C26.4809 13.1711 26.6011 12.8627 26.649 12.726C27.7464 9.60653 28.4533 6.32204 28.5496 3.04579C28.5882 1.72828 27.3553 -0.326399 25.307 0.607312C23.2936 1.52452 21.8518 5.04218 20.8384 6.71255C19.3989 9.08603 18.2606 11.6674 17.4498 14.2978C18.0674 14.4355 18.7317 14.3576 19.2944 14.0595Z" fill="#EEAF4B"/>
<path id="Vector_4" d="M4.11835 13.5297L4.90348 13.946C5.80536 14.4242 6.93197 14.4242 7.83385 13.946L8.03582 13.8387C8.80636 13.4301 9.76836 13.4301 10.5383 13.8387L10.9545 14.0589C11.4069 14.2988 11.9253 14.3937 12.432 14.352C12.8056 13.2857 12.6801 11.9527 12.101 11.0504C10.1536 8.01458 8.53375 8.6331 6.97517 9.95113C6.6763 10.2039 6.31087 10.3891 5.91276 10.4897C4.20358 10.9215 2.94212 11.6277 3.65953 13.5508C3.7862 13.4693 3.96249 13.4471 4.11835 13.5297Z" fill="#ED3F32"/>
<path id="Vector_5" d="M20.7765 12.9365C20.7146 12.9365 20.651 12.9277 20.5891 12.9091C20.2838 12.8173 20.1204 12.5243 20.2243 12.2545C20.6136 11.2424 21.864 10.7007 23.0075 11.0412C23.544 11.2027 24.1283 10.9478 24.3104 10.4738C24.4138 10.204 24.7442 10.0585 25.0512 10.1508C25.3565 10.2427 25.52 10.5357 25.416 10.8055C25.0273 11.8181 23.7781 12.3618 22.6328 12.0188C22.0969 11.8578 21.5126 12.1132 21.3299 12.5862C21.2464 12.8019 21.0193 12.9365 20.7765 12.9365Z" fill="#A46F3E"/>
<path id="Vector_6" d="M22.1571 9.34245C22.0952 9.34245 22.0316 9.33368 21.9697 9.31511C21.6644 9.22329 21.501 8.93028 21.6049 8.66048C21.7934 8.1699 22.1869 7.7732 22.7122 7.54416C23.2376 7.31511 23.8324 7.28055 24.3882 7.44717C24.9258 7.60915 25.5089 7.3538 25.6911 6.87921C25.7944 6.6089 26.1259 6.46394 26.4312 6.55628C26.7365 6.6481 26.9 6.94111 26.7961 7.21091C26.4073 8.22406 25.1581 8.76675 24.0128 8.42473C23.753 8.34632 23.474 8.36231 23.2283 8.46961C22.9825 8.57691 22.7986 8.76211 22.7099 8.99218C22.6276 9.2073 22.4005 9.34245 22.1571 9.34245Z" fill="#A46F3E"/>
<path id="Vector_7" d="M23.5382 5.74789C23.4763 5.74789 23.4127 5.73912 23.3502 5.72055C23.0449 5.62873 22.8815 5.33572 22.9854 5.06592C23.3263 4.1776 24.4231 3.70095 25.4283 4.00118C25.621 4.05896 25.8264 4.04761 26.008 3.96868C26.1895 3.88975 26.3255 3.75253 26.3909 3.58281C26.4942 3.31302 26.8252 3.16806 27.1317 3.25988C27.437 3.35171 27.6004 3.64472 27.4965 3.91451C27.3307 4.34526 26.9857 4.69347 26.5246 4.89414C26.0628 5.09532 25.5404 5.12473 25.053 4.97874C24.6572 4.85957 24.2252 5.04786 24.091 5.39813C24.0081 5.61273 23.781 5.74789 23.5382 5.74789Z" fill="#A46F3E"/>
<g id="Group_3">
<path id="Vector_8" d="M13.642 7.64322C13.0904 8.29166 12.22 9.05926 12.5551 10.4149L13.4564 14.0595H13.4569L13.8732 13.8392C14.6437 13.4307 15.6057 13.4307 16.3756 13.8392L16.7919 14.0595C17.1304 14.239 17.4497 14.2984 17.4497 14.2984C18.058 12.3262 18.8501 10.3814 19.815 8.53153C19.3632 7.53282 18.3983 7.19854 17.6978 6.85653C17.6937 6.85446 17.6896 6.8524 17.6861 6.85085C17.2431 6.62645 17.2156 6.09047 17.549 5.74897C17.6803 5.61433 17.741 5.42913 17.6955 5.24342L17.6248 4.95867C17.5472 4.64502 17.1935 4.44487 16.8391 4.51348L13.2918 5.19751C12.9368 5.26612 12.7103 5.57873 12.788 5.89186L12.8586 6.17662C12.9053 6.36646 13.0536 6.51348 13.2416 6.58518C13.6729 6.74974 13.9362 7.17533 13.7155 7.54211C13.6945 7.57667 13.67 7.6102 13.642 7.64322Z" fill="#DAE7EF"/>
</g>
<path id="Vector_9" d="M17.3639 5.99446L13.3484 6.7698C12.9053 6.85544 12.4629 6.60473 12.366 6.21319L12.3082 5.98002C12.2113 5.58848 12.495 5.19746 12.938 5.11182L16.9536 4.33648C17.3966 4.25085 17.8391 4.50156 17.936 4.8931L17.9938 5.12627C18.0907 5.51832 17.807 5.90883 17.3639 5.99446Z" fill="white"/>
<path id="Vector_10" d="M27.3284 13.44L26.3098 26.3515C26.235 27.6406 25.0308 28.6517 23.5703 28.6517H7.18412C5.72361 28.6517 4.51935 27.6406 4.44463 26.3515L3.45053 13.8635C3.4336 13.57 3.79377 13.3786 4.07921 13.5297L4.86434 13.946C5.76622 14.4242 6.89284 14.4242 7.79471 13.946L7.99669 13.8387C8.76722 13.4302 9.72923 13.4302 10.4992 13.8387L10.9154 14.0595C11.6859 14.4681 12.6479 14.4681 13.4179 14.0595L13.8341 13.8387C14.6046 13.4302 15.5666 13.4302 16.3366 13.8387L16.7528 14.0595C17.5233 14.4681 18.4853 14.4681 19.2553 14.0595L19.6715 13.8387C20.442 13.4302 21.404 13.4302 22.174 13.8387L22.5902 14.0595C23.3607 14.4681 24.3227 14.4681 25.0927 14.0595L27.0698 13.2831C27.1953 13.2336 27.3354 13.3187 27.3284 13.44Z" fill="#FBD490"/>
<path id="Vector_11" d="M10.4548 22.0383H6.36865C6.04643 22.0383 5.78491 21.8077 5.78491 21.5225C5.78491 21.2372 6.04643 21.0066 6.36865 21.0066H10.4548C10.777 21.0066 11.0386 21.2372 11.0386 21.5225C11.0386 21.8077 10.777 22.0383 10.4548 22.0383Z" fill="#E0B877"/>
<path id="Vector_12" d="M11.6223 24.1018H6.36865C6.04643 24.1018 5.78491 23.8712 5.78491 23.5859C5.78491 23.3007 6.04643 23.0701 6.36865 23.0701H11.6223C11.9445 23.0701 12.206 23.3007 12.206 23.5859C12.206 23.8712 11.9445 24.1018 11.6223 24.1018Z" fill="#E0B877"/>
<path id="Vector_13" d="M12.7898 26.1653H6.36865C6.04643 26.1653 5.78491 25.9347 5.78491 25.6494C5.78491 25.3641 6.04643 25.1335 6.36865 25.1335H12.7898C13.112 25.1335 13.3735 25.3641 13.3735 25.6494C13.3735 25.9347 13.112 26.1653 12.7898 26.1653Z" fill="#E0B877"/>
<path id="Vector_14" d="M16.2922 26.1653H15.1248C14.8025 26.1653 14.541 25.9347 14.541 25.6494C14.541 25.3641 14.8025 25.1335 15.1248 25.1335H16.2922C16.6145 25.1335 16.876 25.3641 16.876 25.6494C16.876 25.9347 16.6145 26.1653 16.2922 26.1653Z" fill="#E0B877"/>
</g>
</g>
<defs>
<clipPath id="clip0_1_2202">
<rect width="32" height="28.2791" fill="white" transform="translate(0 0.37207)"/>
</clipPath>
</defs>
</svg>
