<svg width="32" height="29" viewBox="0 0 32 29" fill="none" xmlns="http://www.w3.org/2000/svg">
<g id="dress 1" clip-path="url(#clip0_1_2221)">
<g id="Group">
<g id="Group_2">
<path id="Vector" d="M29.9998 23.65C30.2646 24.0214 30.1663 24.4388 29.7672 24.6139C26.8144 25.9093 21.8106 26.7744 15.9999 26.7744C10.1891 26.7744 5.18539 25.9093 2.23254 24.6139C1.83342 24.4388 1.7351 24.0215 2.00001 23.65L11.2333 7.03284H20.7665L29.9998 23.65Z" fill="url(#paint0_linear_1_2221)"/>
<path id="Vector_2" d="M12.2358 7.03198L4.50421 25.4107C3.65087 25.1689 2.88971 24.9012 2.2329 24.6129C1.83352 24.4378 1.73539 24.0205 2.0003 23.6493L11.2334 7.03198H12.2358Z" fill="url(#paint1_linear_1_2221)"/>
<path id="Vector_3" d="M27.4094 26.1919C24.0827 27.7187 7.9171 27.7187 4.59035 26.1919C4.36014 26.0862 4.28328 25.8458 4.39892 25.6179L12.2356 7.03198H19.7642L27.6009 25.6179C27.7164 25.8458 27.6396 26.0862 27.4094 26.1919Z" fill="url(#paint2_linear_1_2221)"/>
<path id="Vector_4" d="M27.4096 26.1917C26.4423 26.6357 24.3513 26.9524 21.7773 27.1371C21.7853 27.1239 21.7923 27.1112 21.7991 27.0981L17.8152 7.03198H19.764L27.6008 25.6178C27.7162 25.8458 27.6397 26.086 27.4096 26.1917Z" fill="url(#paint3_linear_1_2221)"/>
<path id="Vector_5" d="M21.7996 27.0981C20.713 29.1687 11.2869 29.1687 10.2003 27.0981L14.1845 7.03186H17.8154L21.7996 27.0981Z" fill="url(#paint4_linear_1_2221)"/>
<path id="Vector_6" d="M29.7671 24.6129C29.1102 24.9011 28.3491 25.1689 27.4957 25.4107L19.7642 7.03198H20.7666L29.9997 23.6493C30.2646 24.0205 30.1664 24.4378 29.7671 24.6129Z" fill="url(#paint5_linear_1_2221)"/>
</g>
<path id="Vector_7" d="M11.231 1.91309H20.7688V7.03193H11.231V1.91309Z" fill="url(#paint6_linear_1_2221)"/>
<path id="Vector_8" d="M20.769 1.91333V7.03173H14.6794L11.2306 3.98447V1.91333H20.769Z" fill="url(#paint7_linear_1_2221)"/>
<path id="Vector_9" d="M22.2106 0.540669C22.1605 0.397499 21.9738 0.330461 21.8232 0.399274C20.5826 0.965964 18.6361 1.34496 16.4229 1.38771C16.2828 1.3907 16.142 1.39192 15.9999 1.39192C15.8578 1.39192 15.717 1.3907 15.577 1.38771C13.3638 1.34496 11.4172 0.966019 10.1767 0.399274C10.026 0.330461 9.83937 0.397499 9.78923 0.540669C9.70001 0.795458 9.64831 1.06472 9.63958 1.34335C9.58625 3.04769 11.0615 4.40603 12.9907 4.42571C13.7228 4.4332 14.4022 4.23591 14.9601 3.89457C15.5824 3.51385 16.4176 3.51385 17.0397 3.89457C17.5977 4.23591 18.2771 4.4332 19.0091 4.42571C20.9383 4.40597 22.4136 3.04769 22.3603 1.34335C22.3516 1.06472 22.2999 0.795458 22.2106 0.540669Z" fill="url(#paint8_linear_1_2221)"/>
<path id="Vector_10" d="M22.3602 1.34335C22.3515 1.06472 22.2998 0.795458 22.2106 0.540669C22.1604 0.397499 21.9738 0.330461 21.8231 0.399274C20.5826 0.966019 18.6361 1.34496 16.4229 1.38771C16.2827 1.3907 16.142 1.39192 15.9999 1.39192C15.8587 1.39192 15.7189 1.3907 15.5796 1.38777C15.578 1.42664 15.5763 1.46545 15.5763 1.50465C15.5763 2.22721 15.8587 2.89116 16.3309 3.41593C16.4791 3.58072 16.6721 3.70765 16.8813 3.8084C16.9354 3.83446 16.9883 3.86318 17.0398 3.89462C17.5849 4.22815 18.2459 4.42416 18.9588 4.42599C20.8598 4.43082 22.4127 3.02268 22.3602 1.34335Z" fill="url(#paint9_linear_1_2221)"/>
<path id="Vector_11" d="M29.9238 24.5202L10.8712 7.68304L11.2333 7.03174H20.7664L29.9996 23.6493C30.2256 23.9664 30.187 24.3156 29.9238 24.5202Z" fill="url(#paint10_linear_1_2221)"/>
<path id="Vector_12" d="M10.7047 7.20308C10.6376 7.49086 10.8516 7.76972 11.1784 7.82395C12.5757 8.05567 14.2339 8.18958 15.9998 8.18958C17.7658 8.18958 19.424 8.05567 20.8212 7.82395C21.148 7.76977 21.3621 7.49086 21.2949 7.20308L21.1543 6.60007C21.0912 6.32937 20.8011 6.14972 20.4913 6.1872C19.5265 6.30403 18.3245 6.38382 17.0056 6.41116C16.4477 6.42247 15.5519 6.42247 14.994 6.41116C13.6751 6.38377 12.4731 6.30398 11.5083 6.1872C11.1984 6.14966 10.9083 6.32937 10.8452 6.60007L10.7047 7.20308Z" fill="url(#paint11_linear_1_2221)"/>
</g>
</g>
<defs>
<linearGradient id="paint0_linear_1_2221" x1="11.421" y1="15.6356" x2="16.6003" y2="27.8405" gradientUnits="userSpaceOnUse">
<stop stop-color="#B063DE"/>
<stop offset="1" stop-color="#793981"/>
</linearGradient>
<linearGradient id="paint1_linear_1_2221" x1="8.1881" y1="16.52" x2="15.5558" y2="23.3154" gradientUnits="userSpaceOnUse">
<stop stop-color="#662D90" stop-opacity="0"/>
<stop offset="0.1835" stop-color="#5C2D85" stop-opacity="0.184"/>
<stop offset="0.6917" stop-color="#442D6C" stop-opacity="0.692"/>
<stop offset="1" stop-color="#3B2D63"/>
</linearGradient>
<linearGradient id="paint2_linear_1_2221" x1="9.79399" y1="13.493" x2="20.1907" y2="31.1705" gradientUnits="userSpaceOnUse">
<stop stop-color="#B063DE"/>
<stop offset="1" stop-color="#793981"/>
</linearGradient>
<linearGradient id="paint3_linear_1_2221" x1="21.9893" y1="16.8782" x2="16.6199" y2="19.8095" gradientUnits="userSpaceOnUse">
<stop stop-color="#662D90" stop-opacity="0"/>
<stop offset="0.1835" stop-color="#5C2D85" stop-opacity="0.184"/>
<stop offset="0.6917" stop-color="#442D6C" stop-opacity="0.692"/>
<stop offset="1" stop-color="#3B2D63"/>
</linearGradient>
<linearGradient id="paint4_linear_1_2221" x1="13.9978" y1="17.3407" x2="19.7504" y2="19.4817" gradientUnits="userSpaceOnUse">
<stop stop-color="#B063DE"/>
<stop offset="1" stop-color="#793981"/>
</linearGradient>
<linearGradient id="paint5_linear_1_2221" x1="24.981" y1="15.6944" x2="21.4916" y2="18.4443" gradientUnits="userSpaceOnUse">
<stop stop-color="#662D90" stop-opacity="0"/>
<stop offset="0.1835" stop-color="#5C2D85" stop-opacity="0.184"/>
<stop offset="0.6917" stop-color="#442D6C" stop-opacity="0.692"/>
<stop offset="1" stop-color="#3B2D63"/>
</linearGradient>
<linearGradient id="paint6_linear_1_2221" x1="13.3364" y1="3.2956" x2="18.9757" y2="6.48626" gradientUnits="userSpaceOnUse">
<stop stop-color="#B063DE"/>
<stop offset="1" stop-color="#793981"/>
</linearGradient>
<linearGradient id="paint7_linear_1_2221" x1="17.8371" y1="5.30615" x2="13.5157" y2="-1.79301" gradientUnits="userSpaceOnUse">
<stop stop-color="#662D90" stop-opacity="0"/>
<stop offset="0.1835" stop-color="#5C2D85" stop-opacity="0.184"/>
<stop offset="0.6917" stop-color="#442D6C" stop-opacity="0.692"/>
<stop offset="1" stop-color="#3B2D63"/>
</linearGradient>
<linearGradient id="paint8_linear_1_2221" x1="15.6808" y1="0.65495" x2="17.6591" y2="6.9109" gradientUnits="userSpaceOnUse">
<stop stop-color="#B063DE"/>
<stop offset="1" stop-color="#793981"/>
</linearGradient>
<linearGradient id="paint9_linear_1_2221" x1="19.1516" y1="2.12114" x2="20.3293" y2="7.4923" gradientUnits="userSpaceOnUse">
<stop stop-color="#662D90" stop-opacity="0"/>
<stop offset="0.1835" stop-color="#5C2D85" stop-opacity="0.184"/>
<stop offset="0.6917" stop-color="#442D6C" stop-opacity="0.692"/>
<stop offset="1" stop-color="#3B2D63"/>
</linearGradient>
<linearGradient id="paint10_linear_1_2221" x1="20.5094" y1="12.7883" x2="20.5094" y2="3.09823" gradientUnits="userSpaceOnUse">
<stop stop-color="#662D90" stop-opacity="0"/>
<stop offset="0.1835" stop-color="#5C2D85" stop-opacity="0.184"/>
<stop offset="0.6917" stop-color="#442D6C" stop-opacity="0.692"/>
<stop offset="1" stop-color="#3B2D63"/>
</linearGradient>
<linearGradient id="paint11_linear_1_2221" x1="15.9998" y1="6.54828" x2="15.9998" y2="8.08217" gradientUnits="userSpaceOnUse">
<stop stop-color="#FFDA2D"/>
<stop offset="1" stop-color="#FDBF00"/>
</linearGradient>
<clipPath id="clip0_1_2221">
<rect width="32" height="28.2791" fill="white" transform="translate(0 0.37207)"/>
</clipPath>
</defs>
</svg>
