<svg width="32" height="29" viewBox="0 0 32 29" fill="none" xmlns="http://www.w3.org/2000/svg">
<g id="smartwatch 1" clip-path="url(#clip0_1_2130)">
<path id="Vector" d="M16.0544 20.9882C12.0069 20.9882 8.72568 18.0885 8.72568 14.5116C8.72568 10.9347 12.0069 8.03503 16.0544 8.03503C20.102 8.03503 23.3832 10.9347 23.3832 14.5116C23.3832 18.0885 20.102 20.9882 16.0544 20.9882Z" fill="white"/>
<path id="Vector_2" d="M21.3851 17.2957C21.8402 16.4523 22.0952 15.5084 22.0952 14.5117C22.0952 11.1265 19.1562 8.34848 15.4104 8.06017C15.6226 8.04387 15.8373 8.03503 16.0544 8.03503C20.1019 8.03503 23.3832 10.9347 23.3832 14.5117C23.3832 15.5083 23.1282 16.4523 22.6731 17.2957H21.3851Z" fill="#EEF6FF"/>
<g id="Group">
<path id="Vector_3" d="M6.06581 11.3517L7.76781 8.9049C7.85781 8.77549 8.05125 8.73467 8.19769 8.81421L9.0415 9.27264C8.20675 10.1439 7.57525 11.1719 7.2135 12.2993L6.16837 11.7315C6.022 11.652 5.97581 11.4811 6.06581 11.3517Z" fill="#B7092B"/>
<path id="Vector_4" d="M24.3354 18.0267L24.6088 18.1753C24.7553 18.2548 24.8014 18.4257 24.7114 18.5551L23.7554 19.9295C23.6654 20.0589 23.472 20.0997 23.3256 20.0201L22.9854 19.8353C23.5214 19.2911 23.9771 18.6834 24.3354 18.0267Z" fill="#B7092B"/>
</g>
<path id="Vector_5" d="M11.375 23.7645H20.625C20.6665 23.7645 20.7084 23.7603 20.75 23.7528V28.375C20.75 28.5269 20.6094 28.6512 20.4375 28.6512H11.5625C11.3906 28.6512 11.25 28.5269 11.25 28.375V23.7528C11.2916 23.7603 11.3335 23.7645 11.375 23.7645Z" fill="#2E4C89"/>
<g id="Group_2">
<path id="Vector_6" d="M11.25 23.7528C11.2916 23.7605 11.3335 23.7648 11.375 23.7648H11.25V23.7528Z" fill="#293D7C"/>
<path id="Vector_7" d="M19.8125 28.375V23.7645H20.625C20.6665 23.7645 20.7084 23.7603 20.75 23.7528V28.375C20.75 28.5269 20.6094 28.6512 20.4375 28.6512H19.5C19.6719 28.6512 19.8125 28.5269 19.8125 28.375Z" fill="#293D7C"/>
</g>
<path id="Vector_8" d="M20.625 5.25872H11.375C11.3335 5.25872 11.2916 5.26291 11.25 5.27042V0.648233C11.25 0.496344 11.3906 0.37207 11.5625 0.37207H20.4375C20.6094 0.37207 20.75 0.496344 20.75 0.648233V5.27042C20.7084 5.26291 20.6665 5.25872 20.625 5.25872Z" fill="#2E4C89"/>
<g id="Group_3">
<path id="Vector_9" d="M19.5 0.648233C19.5 0.496344 19.3594 0.37207 19.1875 0.37207H20.4375C20.6094 0.37207 20.75 0.496344 20.75 0.648233V5.27042C20.7084 5.26291 20.6665 5.25872 20.625 5.25872H19.5V0.648233Z" fill="#293D7C"/>
<path id="Vector_10" d="M11.375 5.25867C11.3335 5.25867 11.2916 5.26297 11.25 5.27068V5.25867H11.375Z" fill="#293D7C"/>
</g>
<path id="Vector_11" d="M16.0544 6.39236C13.5807 6.39236 11.3324 7.26117 9.67901 8.6712L10.5855 5.7362C10.676 5.44313 11.0313 5.20337 11.3751 5.20337H20.6251C20.9688 5.20337 21.3241 5.44313 21.4146 5.7362L22.2834 8.54914C20.6449 7.21124 18.4559 6.39236 16.0544 6.39236Z" fill="#B7092B"/>
<path id="Vector_12" d="M20.1108 5.73632C20.0203 5.44326 19.6649 5.20349 19.3212 5.20349H20.6251C20.9688 5.20349 21.3241 5.44326 21.4146 5.73632L22.2834 8.54926C21.7867 8.14369 21.2391 7.78617 20.6506 7.48432L20.1108 5.73632Z" fill="#930628"/>
<path id="Vector_13" d="M16.0544 22.6308C18.4559 22.6308 20.6448 21.8119 22.2834 20.474L21.4146 23.2869C21.3241 23.58 20.9688 23.8198 20.6251 23.8198H11.3751C11.0313 23.8198 10.676 23.58 10.5855 23.2869L9.67901 20.3519C11.3323 21.762 13.5806 22.6308 16.0544 22.6308Z" fill="#B7092B"/>
<path id="Vector_14" d="M20.1107 23.2869L20.6506 21.5389C21.2391 21.2371 21.7867 20.8796 22.2834 20.474L21.4146 23.2869C21.3241 23.58 20.9688 23.8198 20.6251 23.8198H19.3212C19.6649 23.8198 20.0202 23.58 20.1107 23.2869Z" fill="#930628"/>
<path id="Vector_15" d="M12.6526 13.6229C11.7458 13.6229 11.0107 12.9732 11.0107 12.1719C11.0107 11.3706 11.7458 10.7209 12.6526 10.7209C13.5593 10.7209 14.2944 11.3706 14.2944 12.1719C14.2944 12.9732 13.5593 13.6229 12.6526 13.6229Z" fill="white"/>
<path id="Vector_16" d="M13.25 12.1719C13.25 11.5318 12.7809 10.989 12.1302 10.796C12.2944 10.7474 12.4699 10.7206 12.6526 10.7206C13.5595 10.7206 14.2948 11.3703 14.2948 12.1718C14.2948 12.9733 13.5595 13.6231 12.6526 13.6231C12.4699 13.6231 12.2944 13.5963 12.1302 13.5476C12.7809 13.3548 13.25 12.8119 13.25 12.1719Z" fill="#EEF6FF"/>
<g id="Group_4">
<path id="Vector_17" d="M18.3668 16.0581C18.5366 16.0581 18.6963 16.0194 18.8356 15.9518V17.3836H17.8981V15.9518C18.0373 16.0194 18.197 16.0581 18.3668 16.0581Z" fill="#0F9390"/>
<path id="Vector_18" d="M12.1839 15.8744V13.9905C11.4069 13.8341 10.7918 13.2982 10.6026 12.6158H9.04497C9.14359 12.3307 9.26397 12.0541 9.40415 11.7873H10.587C10.7562 11.0767 11.3845 10.5142 12.1839 10.3533V9.01141C12.4827 8.84687 12.7958 8.70084 13.1214 8.57507V10.3533C13.9208 10.5142 14.549 11.0767 14.7183 11.7873H18.116V10.8552C18.2552 10.9229 18.4149 10.9615 18.5847 10.9615C18.7545 10.9615 18.9142 10.9228 19.0535 10.8552V11.7872H22.7046C22.8448 12.0541 22.9652 12.3307 23.0638 12.6157H21.2822V14.8871C21.2822 15.2678 20.9318 15.5775 20.501 15.5775H19.241C19.3059 15.4621 19.3433 15.3326 19.3433 15.1952C19.3433 15.0318 19.2907 14.8794 19.201 14.749H20.3447V12.6157H14.7028C14.5135 13.2982 13.8984 13.834 13.1215 13.9904V15.8744H15.1835V15.4393C15.1835 15.0586 15.534 14.7489 15.9648 14.7489H17.5328C17.4432 14.8793 17.3905 15.0318 17.3905 15.1952C17.3905 15.3326 17.428 15.462 17.4928 15.5774H16.121V17.3837H15.1835V16.7029H9.15615C9.04697 16.4346 8.9574 16.158 8.88872 15.8744H12.1839ZM13.8261 12.1719C13.8261 11.6001 13.2997 11.1349 12.6527 11.1349C12.0056 11.1349 11.4792 11.6001 11.4792 12.1719C11.4792 12.7437 12.0056 13.2089 12.6527 13.2089C13.2997 13.2089 13.8261 12.7437 13.8261 12.1719Z" fill="#0F9390"/>
<path id="Vector_19" d="M18.5847 9.23572C18.4149 9.23572 18.2552 9.27438 18.116 9.34199V8.29517C18.4382 8.37846 18.7513 8.48058 19.0535 8.60049V9.34193C18.9142 9.27433 18.7545 9.23572 18.5847 9.23572Z" fill="#0F9390"/>
</g>
<path id="Vector_20" d="M22.6731 17.2957C21.4949 19.4792 18.9741 20.9882 16.0543 20.9882C13.1345 20.9882 10.6138 19.4792 9.43559 17.2957H22.6731Z" fill="#C3DDF4"/>
<g id="Group_5">
<path id="Vector_21" d="M18.5842 11.0167C18.0104 11.0167 17.5453 10.6056 17.5453 10.0986C17.5453 9.59148 18.0104 9.18042 18.5842 9.18042C19.158 9.18042 19.6232 9.59148 19.6232 10.0986C19.6232 10.6056 19.158 11.0167 18.5842 11.0167Z" fill="#FE3745"/>
<path id="Vector_22" d="M18.3668 16.1135C17.793 16.1135 17.3279 15.7024 17.3279 15.1954C17.3279 14.6883 17.793 14.2772 18.3668 14.2772C18.9406 14.2772 19.4058 14.6883 19.4058 15.1954C19.4058 15.7024 18.9406 16.1135 18.3668 16.1135Z" fill="#FE3745"/>
<path id="Vector_23" d="M16.0543 6.33716C21.1629 6.33716 25.3043 9.99692 25.3043 14.5116C25.3043 19.0262 21.1629 22.686 16.0543 22.686C10.9456 22.686 6.80426 19.0262 6.80426 14.5116C6.80426 9.99692 10.9456 6.33716 16.0543 6.33716ZM16.0543 20.8777C20.0329 20.8777 23.2581 18.0276 23.2581 14.5116C23.2581 10.9956 20.0329 8.14542 16.0543 8.14542C12.0757 8.14542 8.85051 10.9956 8.85051 14.5116C8.85051 18.0275 12.0757 20.8777 16.0543 20.8777Z" fill="#FE3745"/>
</g>
<path id="Vector_24" d="M23.9999 14.5116C23.9999 10.1907 20.2064 6.65348 15.4021 6.35765C15.6176 6.34439 15.835 6.33716 16.0543 6.33716C21.1629 6.33716 25.3043 9.99692 25.3043 14.5116C25.3043 19.0262 21.1629 22.686 16.0543 22.686C15.835 22.686 15.6176 22.6788 15.4021 22.6655C20.2064 22.3697 23.9999 18.8324 23.9999 14.5116Z" fill="#EA2A3D"/>
<path id="Vector_25" d="M18.3438 27.3809C19.1192 27.3809 19.75 26.8234 19.75 26.1381C19.75 25.4528 19.1192 24.8954 18.3438 24.8954H13.6562C12.8808 24.8954 12.25 25.4528 12.25 26.1381C12.25 26.8234 12.8808 27.3809 13.6562 27.3809H18.3438Z" fill="#293D7C"/>
<path id="Vector_26" d="M12.875 26.138C12.875 26.5194 13.2248 26.8284 13.6562 26.8284H18.3438C18.7752 26.8284 19.125 26.5194 19.125 26.138C19.125 25.7567 18.7752 25.4476 18.3438 25.4476H13.6562C13.2248 25.4476 12.875 25.7567 12.875 26.138Z" fill="#9CE2D8"/>
<path id="Vector_27" d="M15.1875 25.4476H18.3438C18.7752 25.4476 19.125 25.7567 19.125 26.138C19.125 26.5194 18.7752 26.8284 18.3438 26.8284H15.1875V25.4476Z" fill="#FFCA51"/>
<g id="Group_6">
<path id="Vector_28" d="M19.7906 18.8231C19.5134 18.8231 19.2887 18.6245 19.2887 18.3796C19.2887 18.1346 19.5134 17.936 19.7906 17.936C20.0678 17.936 20.2925 18.1346 20.2925 18.3796C20.2925 18.6245 20.0678 18.8231 19.7906 18.8231Z" fill="#445EA0"/>
<path id="Vector_29" d="M17.75 18.8231C17.4728 18.8231 17.2481 18.6245 17.2481 18.3796C17.2481 18.1346 17.4728 17.936 17.75 17.936C18.0271 17.936 18.2518 18.1346 18.2518 18.3796C18.2518 18.6245 18.0271 18.8231 17.75 18.8231Z" fill="#445EA0"/>
<path id="Vector_30" d="M15.71 18.8231C15.4329 18.8231 15.2082 18.6245 15.2082 18.3796C15.2082 18.1346 15.4329 17.936 15.71 17.936C15.9872 17.936 16.2119 18.1346 16.2119 18.3796C16.2119 18.6245 15.9872 18.8231 15.71 18.8231Z" fill="#445EA0"/>
</g>
<path id="Vector_31" d="M3.61098 18.5051C3.73092 18.5051 3.85092 18.4647 3.94242 18.3838C4.12548 18.2221 4.12548 17.9598 3.94242 17.798C1.89192 15.9859 1.89192 13.0374 3.94242 11.2253C4.12548 11.0635 4.12548 10.8012 3.94242 10.6395C3.75935 10.4777 3.46254 10.4777 3.27948 10.6395C0.863427 12.7746 0.863427 16.2488 3.27948 18.3839C3.3711 18.4646 3.49104 18.5051 3.61098 18.5051Z" fill="#EEF6FF"/>
<path id="Vector_32" d="M4.77492 17.4767C4.89486 17.4767 5.01486 17.4362 5.10636 17.3553C5.28942 17.1935 5.28942 16.9312 5.10636 16.7695C3.6976 15.5245 3.6976 13.4988 5.10636 12.2538C5.28942 12.092 5.28942 11.8297 5.10636 11.668C4.92329 11.5062 4.62648 11.5062 4.44348 11.668C2.66916 13.236 2.66916 15.7873 4.44348 17.3553C4.53498 17.4362 4.65498 17.4767 4.77492 17.4767Z" fill="#C3DDF4"/>
<path id="Vector_33" d="M5.93874 16.4481C6.05867 16.4481 6.17867 16.4077 6.27017 16.3267C6.45324 16.165 6.45324 15.9027 6.27017 15.7409C5.89861 15.4126 5.69399 14.976 5.69399 14.5116C5.69399 14.0473 5.89861 13.6107 6.27017 13.2823C6.45324 13.1205 6.45324 12.8582 6.27017 12.6965C6.08711 12.5348 5.7903 12.5348 5.60724 12.6965C5.05861 13.1814 4.75642 13.826 4.75642 14.5116C4.75642 15.1973 5.05855 15.842 5.60724 16.3267C5.6988 16.4076 5.8188 16.4481 5.93874 16.4481Z" fill="#94C2ED"/>
<path id="Vector_34" d="M28.3887 18.5051C28.5087 18.5051 28.6287 18.4647 28.7202 18.3838C29.8888 17.3511 30.5325 15.9759 30.5325 14.5117C30.5325 13.0474 29.8888 11.6723 28.7202 10.6395C28.5371 10.4777 28.2403 10.4777 28.0573 10.6395C27.8742 10.8013 27.8742 11.0636 28.0573 11.2254C30.1078 13.0375 30.1078 15.9859 28.0573 17.798C27.8742 17.9598 27.8742 18.2221 28.0573 18.3838C28.1488 18.4646 28.2687 18.5051 28.3887 18.5051Z" fill="#EEF6FF"/>
<path id="Vector_35" d="M27.2248 17.4766C27.3448 17.4766 27.4647 17.4362 27.5562 17.3553C29.3305 15.7873 29.3305 13.236 27.5562 11.668C27.3732 11.5062 27.0764 11.5062 26.8934 11.668C26.7103 11.8298 26.7103 12.092 26.8934 12.2538C28.3021 13.4988 28.3021 15.5245 26.8934 16.7694C26.7103 16.9312 26.7103 17.1935 26.8934 17.3553C26.9849 17.4361 27.1049 17.4766 27.2248 17.4766Z" fill="#C3DDF4"/>
<path id="Vector_36" d="M26.061 16.4481C26.1809 16.4481 26.3009 16.4077 26.3924 16.3268C27.525 15.326 27.525 13.6974 26.3924 12.6965C26.2093 12.5348 25.9125 12.5347 25.7295 12.6965C25.5465 12.8583 25.5465 13.1206 25.7295 13.2823C26.4965 13.9602 26.4965 15.0631 25.7295 15.741C25.5465 15.9027 25.5465 16.165 25.7295 16.3268C25.821 16.4076 25.941 16.4481 26.061 16.4481Z" fill="#94C2ED"/>
</g>
<defs>
<clipPath id="clip0_1_2130">
<rect width="32" height="28.2791" fill="white" transform="matrix(-1 0 0 1 32 0.37207)"/>
</clipPath>
</defs>
</svg>
