<svg width="24" height="24" viewBox="0 0 24 24" fill="none" xmlns="http://www.w3.org/2000/svg">
<g id="Icons/Line/Logout">
<path id="Path-103" fill-rule="evenodd" clip-rule="evenodd" d="M8.9149 16.4615C8.9149 16.0197 8.58957 15.6615 8.15154 15.6615C7.71351 15.6615 7.38718 16.0197 7.38718 16.4615V17.2615C7.38718 19.0289 8.70436 20.4615 10.4565 20.4615H15.3864C17.1386 20.4615 18.4615 19.0289 18.4615 17.2615V7.66155C18.4615 5.89424 17.0412 4.46155 15.289 4.46155H10.4565C8.70436 4.46155 7.38718 5.89424 7.38718 7.66155V8.46155C7.38718 8.90338 7.708 9.26155 8.14603 9.26155C8.58407 9.26155 8.93916 8.90338 8.93916 8.46155V7.66155C8.93916 6.77789 9.58043 5.98944 10.4565 5.98944L15.3864 6.0201C16.2625 6.0201 16.9486 6.77789 16.9486 7.66155V17.2615C16.9486 18.1452 16.2625 18.9245 15.3864 18.9245H10.4565C9.58043 18.9245 8.9149 18.1452 8.9149 17.2615V16.4615ZM15.5563 11.8856L15.5671 11.8959C15.8941 12.2083 15.8941 12.7148 15.5671 13.0272L13.0548 15.4272C12.7278 15.7397 12.1975 15.7397 11.8705 15.4272C11.5435 15.1148 11.5435 14.6083 11.8705 14.2959L13.3233 12.908H6.33847C5.89664 12.908 5.53847 12.5498 5.53847 12.108C5.53847 11.6661 5.89664 11.308 6.33847 11.308H12.5831L11.8705 10.6272C11.5435 10.3148 11.5435 9.80828 11.8705 9.49586C12.1975 9.18344 12.7278 9.18344 13.0548 9.49586L14.9747 11.33C15.2544 11.397 15.477 11.6109 15.5563 11.8856Z" fill="#1E2126"/>
<mask id="mask0_1_5630" style="mask-type:luminance" maskUnits="userSpaceOnUse" x="5" y="4" width="14" height="17">
<path id="Path-103_2" fill-rule="evenodd" clip-rule="evenodd" d="M8.9149 16.4615C8.9149 16.0197 8.58957 15.6615 8.15154 15.6615C7.71351 15.6615 7.38718 16.0197 7.38718 16.4615V17.2615C7.38718 19.0289 8.70436 20.4615 10.4565 20.4615H15.3864C17.1386 20.4615 18.4615 19.0289 18.4615 17.2615V7.66155C18.4615 5.89424 17.0412 4.46155 15.289 4.46155H10.4565C8.70436 4.46155 7.38718 5.89424 7.38718 7.66155V8.46155C7.38718 8.90338 7.708 9.26155 8.14603 9.26155C8.58407 9.26155 8.93916 8.90338 8.93916 8.46155V7.66155C8.93916 6.77789 9.58043 5.98944 10.4565 5.98944L15.3864 6.0201C16.2625 6.0201 16.9486 6.77789 16.9486 7.66155V17.2615C16.9486 18.1452 16.2625 18.9245 15.3864 18.9245H10.4565C9.58043 18.9245 8.9149 18.1452 8.9149 17.2615V16.4615ZM15.5563 11.8856L15.5671 11.8959C15.8941 12.2083 15.8941 12.7148 15.5671 13.0272L13.0548 15.4272C12.7278 15.7397 12.1975 15.7397 11.8705 15.4272C11.5435 15.1148 11.5435 14.6083 11.8705 14.2959L13.3233 12.908H6.33847C5.89664 12.908 5.53847 12.5498 5.53847 12.108C5.53847 11.6661 5.89664 11.308 6.33847 11.308H12.5831L11.8705 10.6272C11.5435 10.3148 11.5435 9.80828 11.8705 9.49586C12.1975 9.18344 12.7278 9.18344 13.0548 9.49586L14.9747 11.33C15.2544 11.397 15.477 11.6109 15.5563 11.8856Z" fill="white"/>
</mask>
<g mask="url(#mask0_1_5630)">
</g>
</g>
</svg>
